# Blender 4.2.0
# www.blender.org
o dobj
v 0.298020 0.069957 0.000000
v 0.210732 0.069957 -0.210732
v -0.000000 0.069957 -0.298020
v -0.210732 0.069957 -0.210732
v -0.298020 0.069957 0.000000
v -0.210732 0.069957 0.210732
v 0.000000 0.069957 0.298020
v 0.210732 0.069957 0.210732
v 0.298020 0.119068 0.000000
v 0.210732 0.119068 -0.210732
v -0.000000 0.119068 -0.298020
v -0.210732 0.119068 -0.210732
v -0.298020 0.119068 0.000000
v -0.210732 0.119068 0.210732
v 0.000000 0.119068 0.298020
v 0.210732 0.119068 0.210732
v 0.191390 0.186106 -0.191390
v -0.191390 0.186106 -0.191390
v -0.191390 0.186106 0.191390
v 0.191390 0.186106 0.191390
v 0.167685 0.201010 0.000000
v -0.000000 0.201010 -0.167685
v -0.167685 0.201010 0.000000
v 0.000000 0.201010 0.167685
v 0.155713 -0.072099 -0.155713
v -0.155713 -0.072099 -0.155713
v -0.155713 -0.072099 0.155713
v 0.155713 -0.072099 0.155713
v 0.000000 -0.227538 0.000000
vn 0.9239 -0.0000 -0.3827
vn 0.3827 -0.0000 -0.9239
vn -0.3827 -0.0000 -0.9239
vn -0.9239 -0.0000 -0.3827
vn -0.9239 -0.0000 0.3827
vn -0.3827 -0.0000 0.9239
vn 0.3827 -0.0000 0.9239
vn 0.9239 -0.0000 0.3827
vn 0.8645 0.3527 0.3581
vn 0.3581 0.3527 0.8645
vn 0.3581 0.3527 -0.8645
vn 0.8645 0.3527 -0.3581
vn -0.8645 0.3527 -0.3581
vn -0.3581 0.3527 -0.8645
vn -0.3581 0.3527 0.8645
vn -0.8645 0.3527 0.3581
vn 0.0690 0.9952 -0.0690
vn -0.0000 0.8466 -0.5323
vn -0.0690 0.9952 -0.0690
vn -0.5323 0.8466 -0.0000
vn -0.0690 0.9952 0.0690
vn -0.0000 0.8466 0.5323
vn 0.0690 0.9952 0.0690
vn 0.5323 0.8466 -0.0000
vn -0.0000 1.0000 -0.0000
vn 0.8243 -0.4515 -0.3415
vn 0.8243 -0.4515 0.3415
vn -0.3415 -0.4515 -0.8243
vn 0.3415 -0.4515 -0.8243
vn -0.8243 -0.4515 0.3415
vn -0.8243 -0.4515 -0.3415
vn 0.3415 -0.4515 0.8243
vn -0.3415 -0.4515 0.8243
vn 0.7065 -0.7077 -0.0000
vn -0.0000 -0.7077 -0.7065
vn -0.7065 -0.7077 -0.0000
vn -0.0000 -0.7077 0.7065
s 0
f 2//1 9//1 1//1
f 3//2 10//2 2//2
f 4//3 11//3 3//3
f 5//4 12//4 4//4
f 6//5 13//5 5//5
f 7//6 14//6 6//6
f 8//7 15//7 7//7
f 1//8 16//8 8//8
f 9//9 20//9 16//9
f 16//10 20//10 15//10
f 10//11 11//11 17//11
f 10//12 17//12 9//12
f 12//13 13//13 18//13
f 12//14 18//14 11//14
f 14//15 15//15 19//15
f 14//16 19//16 13//16
f 21//17 17//17 22//17
f 22//18 11//18 18//18
f 22//19 18//19 23//19
f 23//20 13//20 19//20
f 23//21 19//21 24//21
f 24//22 15//22 20//22
f 24//23 20//23 21//23
f 9//24 21//24 20//24
f 22//25 24//25 21//25
f 1//26 25//26 2//26
f 1//27 8//27 28//27
f 3//28 26//28 4//28
f 3//29 2//29 25//29
f 5//30 27//30 6//30
f 5//31 4//31 26//31
f 7//32 28//32 8//32
f 7//33 6//33 27//33
f 28//34 25//34 1//34
f 25//35 26//35 3//35
f 26//36 27//36 5//36
f 27//37 28//37 7//37
f 2//1 10//1 9//1
f 3//2 11//2 10//2
f 4//3 12//3 11//3
f 5//4 13//4 12//4
f 6//5 14//5 13//5
f 7//6 15//6 14//6
f 8//7 16//7 15//7
f 1//8 9//8 16//8
f 22//18 17//18 11//18
f 23//20 18//20 13//20
f 24//22 19//22 15//22
f 9//24 17//24 21//24
f 22//25 23//25 24//25
f 28//34 29//34 25//34
f 25//35 29//35 26//35
f 26//36 29//36 27//36
f 27//37 29//37 28//37
